<?xml version="1.0" encoding="utf-8"?>
<!-- Uploaded to: SVG Repo, www.svgrepo.com, Generator: SVG Repo Mixer Tools -->
<svg fill="#000000" width="22px" height="22px" viewBox="0 0 32 32" version="1.1" xmlns="http://www.w3.org/2000/svg">
<title>brightness-low</title>
<path d="M16 11.25c-2.623 0-4.75 2.127-4.75 4.75s2.127 4.75 4.75 4.75c2.623 0 4.75-2.127 4.75-4.75v0c-0.003-2.622-2.128-4.747-4.75-4.75h-0zM16 19.25c-1.795 0-3.25-1.455-3.25-3.25s1.455-3.25 3.25-3.25c1.795 0 3.25 1.455 3.25 3.25v0c-0.002 1.794-1.456 3.248-3.25 3.25h-0zM16 8.75c0.414-0 0.75-0.336 0.75-0.75v0-1c0-0.414-0.336-0.75-0.75-0.75s-0.75 0.336-0.75 0.75v0 1c0 0.414 0.336 0.75 0.75 0.75v0zM16 23.25c-0.414 0-0.75 0.336-0.75 0.75v0 1c0 0.414 0.336 0.75 0.75 0.75s0.75-0.336 0.75-0.75v0-1c-0-0.414-0.336-0.75-0.75-0.75v0zM8 15.25h-1c-0.414 0-0.75 0.336-0.75 0.75s0.336 0.75 0.75 0.75v0h1c0.414 0 0.75-0.336 0.75-0.75s-0.336-0.75-0.75-0.75v0zM25 15.25h-1c-0.414 0-0.75 0.336-0.75 0.75s0.336 0.75 0.75 0.75v0h1c0.414 0 0.75-0.336 0.75-0.75s-0.336-0.75-0.75-0.75v0zM10.166 9.105c-0.135-0.131-0.319-0.212-0.523-0.212-0.414 0-0.75 0.336-0.75 0.75 0 0.203 0.081 0.388 0.213 0.523l0.707 0.707c0.135 0.131 0.319 0.212 0.522 0.212 0.414 0 0.75-0.336 0.75-0.75 0-0.203-0.081-0.387-0.212-0.522l0 0zM22.188 21.125c-0.136-0.136-0.324-0.22-0.531-0.22-0.415 0-0.751 0.336-0.751 0.751 0 0.207 0.084 0.395 0.22 0.531l0.707 0.707c0.136 0.136 0.324 0.22 0.531 0.22 0.415 0 0.751-0.336 0.751-0.751 0-0.207-0.084-0.395-0.22-0.531v0zM9.813 21.125l-0.707 0.707c-0.135 0.136-0.218 0.323-0.218 0.529 0 0.415 0.336 0.751 0.751 0.751 0.206 0 0.393-0.083 0.528-0.218l0.707-0.707c0.136-0.136 0.22-0.324 0.22-0.531 0-0.415-0.336-0.751-0.751-0.751-0.207 0-0.395 0.084-0.53 0.219v0zM21.832 9.105l-0.707 0.707c-0.136 0.136-0.219 0.323-0.219 0.53 0 0.415 0.336 0.751 0.751 0.751 0.208 0 0.395-0.084 0.531-0.22v0l0.707-0.707c0.134-0.136 0.218-0.322 0.218-0.528 0-0.415-0.336-0.751-0.751-0.751-0.207 0-0.394 0.083-0.529 0.219l0-0z"></path>
</svg>