<svg width="59" height="33" viewBox="0 0 59 33" fill="none" xmlns="http://www.w3.org/2000/svg">
<rect y="33" width="33.0001" height="58.7401" rx="16.5" transform="rotate(-90 0 33)" fill="#344054"/>
<circle cx="42.2403" cy="16.4999" r="11.88" transform="rotate(-90 42.2403 16.4999)" fill="white"/>
<path d="M34.98 16.4999L35.8234 16.4999M49.3167 16.4999L50.1601 16.4999M42.5701 23.5399L42.5701 24.4199M37.775 21.5035L37.0884 22.2199M37.775 11.4963L37.0884 10.7799M47.3686 21.5035L48.0518 22.2199M47.3686 11.4963L48.0518 10.7799M42.5701 8.57986L42.5701 9.45986M42.5701 12.9799C44.4331 12.9799 45.9434 14.5559 45.9434 16.4999C45.9434 18.4439 44.4331 20.0199 42.5701 20.0199C40.707 20.0199 39.1967 18.4439 39.1967 16.4999C39.1967 14.5559 40.707 12.9799 42.5701 12.9799Z" stroke="#344054" stroke-linecap="round" stroke-linejoin="round"/>
<path d="M14.6211 23.5126C18.494 24.5504 22.475 22.252 23.5128 18.379C23.5997 18.0546 23.1277 17.8706 22.8855 18.1033C21.7333 19.2105 20.0469 19.7052 18.3908 19.2615C15.8734 18.5869 14.3794 15.9993 15.054 13.4819C15.4977 11.8258 16.7694 10.6127 18.3043 10.1684C18.627 10.075 18.7036 9.57431 18.3792 9.48737C14.5062 8.44961 10.5252 10.748 9.48749 14.621C8.44973 18.4939 10.7481 22.4749 14.6211 23.5126Z" fill="white"/>
</svg>
