<svg width="24" height="24" viewBox="0 0 24 24" fill="none" xmlns="http://www.w3.org/2000/svg">
<rect y="5.85294" width="12.2353" height="7.64706" rx="1" fill="#344054"/>
<mask id="mask0_1_33" style="mask-type:alpha" maskUnits="userSpaceOnUse" x="0" y="0" width="12" height="7">
<path d="M4.08247 4.21783H1.15194H1.06447L0.510437 2.80359C0.646514 2.15723 0.965324 0.852829 1.15194 0.806174C1.33856 0.759519 2.65851 0.752715 3.266 0.5H10.2059L11.0516 2.61406C11.071 3.97483 11.1216 6.71387 11.1682 6.78386C11.2149 6.85384 9.302 6.81301 8.33974 6.78386L4.08247 4.21783Z" fill="#D9D9D9"/>
</mask>
<g mask="url(#mask0_1_33)">
<path d="M10.1182 6.05488C10.1182 2.4568 9.51398 1.21442 6.065 1.21442" stroke="#344054" stroke-width="0.735939"/>
<path d="M1.98268 6.05488C1.98268 2.4568 2.59121 1.21442 6.065 1.21442" stroke="#344054" stroke-width="0.735939"/>
</g>
</svg>
