<svg width="24" height="24" viewBox="0 0 24 24" fill="none" xmlns="http://www.w3.org/2000/svg">
<rect x="3.52082" y="0.572529" width="20.0963" height="18.999" transform="rotate(8.92984 3.52082 0.572529)" stroke="#ffffff"/>
<rect x="3.52125" y="0.572597" width="6.25187" height="6.09641" transform="rotate(8.92984 3.52125 0.572597)" stroke="#ffffff"/>
<rect x="17.1978" y="2.72085" width="6.25187" height="6.09641" transform="rotate(8.92984 17.1978 2.72085)" stroke="#ffffff"/>
<rect x="10.0339" y="1.59495" width="6.91113" height="6.09641" transform="rotate(8.92984 10.0339 1.59495)" stroke="#ffffff"/>
<rect x="2.51984" y="6.9446" width="6.25187" height="6.09641" transform="rotate(8.92984 2.51984 6.9446)" stroke="#ffffff"/>
<rect x="16.1956" y="9.09304" width="6.25187" height="6.09641" transform="rotate(8.92984 16.1956 9.09304)" stroke="#ffffff"/>
<rect x="9.03193" y="7.96687" width="6.91113" height="6.09641" transform="rotate(8.92984 9.03193 7.96687)" stroke="#ffffff"/>
<rect x="1.51807" y="13.3185" width="6.25187" height="6.09641" transform="rotate(8.92984 1.51807 13.3185)" stroke="#ffffff"/>
<rect x="15.1947" y="15.4666" width="6.25187" height="6.09641" transform="rotate(8.92984 15.1947 15.4666)" stroke="#ffffff"/>
<rect x="8.03083" y="14.3418" width="6.91113" height="6.09641" transform="rotate(8.92984 8.03083 14.3418)" stroke="#ffffff"/>
</svg>
