<svg width="49" height="50" viewBox="0 0 49 50" fill="none" xmlns="http://www.w3.org/2000/svg">
<path fill-rule="evenodd" clip-rule="evenodd" d="M34.7061 30.3081L43.7184 39.3204L40.8311 42.2078L36.7477 38.1255L36.7477 47.489H32.6644L32.6643 38.1254L28.5811 42.2078L25.6937 39.3204L34.7061 30.3081ZM28.5833 4.61815L38.7917 14.8265L38.7916 31.4599L34.7191 27.3874L34.7083 27.3982L34.7083 16.5179L26.892 8.70149H10.2083V41.3682H24.9004L28.5935 45.0613L30.6339 43.0209L30.6347 45.4514L6.125 45.4515V4.61815H28.5833ZM26.5417 33.2015L26.5416 35.5648L24.8217 37.2848L12.25 37.2848V33.2015H26.5417ZM24.8828 12.7848L30.625 18.527L17.9922 31.1598H12.25V25.4176L24.8828 12.7848ZM24.8818 17.1152L15.3125 26.6845V28.0973H16.7213L26.2926 18.526L24.8818 17.1152Z" fill="#ffffff"/>
</svg>
