<svg width="34" height="36" viewBox="0 0 34 36" fill="none" xmlns="http://www.w3.org/2000/svg">
<path d="M25.5 18.5972C26.2933 18.5972 27.0583 18.8985 27.5981 19.4254C27.8673 19.687 28.2498 19.837 28.6521 19.837H32.5833C33.3653 19.837 34 19.2816 34 18.5972V14.8777C34 12.8271 32.0932 11.1583 29.75 11.1583H19.8333V9.2366C21.5617 8.36129 22.6667 6.73714 22.6667 4.95925C22.6667 2.22422 20.1252 0 17 0C13.8748 0 11.3333 2.22422 11.3333 4.95925C11.3333 6.73714 12.4383 8.36129 14.1667 9.2366V11.1583H4.25C1.90683 11.1583 0 12.8271 0 14.8777V18.5972C0 19.2816 0.634667 19.837 1.41667 19.837H5.34792C5.75025 19.837 6.13417 19.687 6.40192 19.4254C6.94167 18.8985 7.70667 18.5972 8.5 18.5972C10.0626 18.5972 11.3333 19.7093 11.3333 21.0768C11.3333 22.4443 10.0626 23.5564 8.5 23.5564C7.70667 23.5564 6.94167 23.2552 6.40192 22.7282C6.13275 22.4666 5.75025 22.3166 5.34792 22.3166H1.41667C0.634667 22.3166 0 22.872 0 23.5564V32.2351C0 34.2858 1.90683 35.9545 4.25 35.9545H14.1667C14.9487 35.9545 15.5833 35.3991 15.5833 34.7147V31.2743C15.5833 30.9221 15.4119 30.5862 15.113 30.3518C14.5109 29.8795 14.1667 29.21 14.1667 28.5157C14.1667 27.1482 15.4374 26.036 17 26.036C18.5626 26.036 19.8333 27.1482 19.8333 28.5157C19.8333 29.21 19.4891 29.8795 18.887 30.3518C18.5881 30.5862 18.4167 30.9221 18.4167 31.2743V34.7147C18.4167 35.3991 19.0513 35.9545 19.8333 35.9545H29.75C32.0932 35.9545 34 34.2858 34 32.2351V23.5564C34 22.872 33.3653 22.3166 32.5833 22.3166H28.6521C28.2498 22.3166 27.8658 22.4666 27.5981 22.7282C27.0583 23.2552 26.2933 23.5564 25.5 23.5564C23.9374 23.5564 22.6667 22.4443 22.6667 21.0768C22.6667 19.7093 23.9374 18.5972 25.5 18.5972Z" fill="#F57200"/>
</svg>
