<svg width="42" height="42" viewBox="0 0 42 42" fill="none" xmlns="http://www.w3.org/2000/svg">
<path fill-rule="evenodd" clip-rule="evenodd" d="M42 21C42 32.5979 32.5979 42 21 42C9.40201 42 0 32.5979 0 21C0 9.40201 9.40201 0 21 0C32.5979 0 42 9.40201 42 21ZM21 12.075C19.6953 12.075 18.6375 13.1327 18.6375 14.4375C18.6375 15.3073 17.9323 16.0125 17.0625 16.0125C16.1927 16.0125 15.4875 15.3073 15.4875 14.4375C15.4875 11.393 17.9556 8.925 21 8.925C24.0444 8.925 26.5125 11.393 26.5125 14.4375C26.5125 15.9303 25.9172 17.2872 24.9543 18.2784C24.7605 18.4777 24.5757 18.6625 24.3993 18.8387C23.9461 19.2914 23.549 19.6881 23.2006 20.1358C22.7407 20.7268 22.575 21.1613 22.575 21.525V23.1C22.575 23.9698 21.8698 24.675 21 24.675C20.1302 24.675 19.425 23.9698 19.425 23.1V21.525C19.425 20.1491 20.0655 19.0352 20.7148 18.2011C21.1951 17.5839 21.7988 16.9812 22.289 16.4923C22.4368 16.3447 22.5742 16.2076 22.6947 16.0834C23.1097 15.6564 23.3625 15.0781 23.3625 14.4375C23.3625 13.1327 22.3047 12.075 21 12.075ZM21 31.5C22.1598 31.5 23.1 30.5598 23.1 29.4C23.1 28.2402 22.1598 27.3 21 27.3C19.8402 27.3 18.9 28.2402 18.9 29.4C18.9 30.5598 19.8402 31.5 21 31.5Z" fill="#F57200"/>
</svg>
